<svg width="150" height="150" viewBox="0 0 150 150" fill="none" xmlns="http://www.w3.org/2000/svg">
<path opacity="0.5" fill-rule="evenodd" clip-rule="evenodd" d="M12.5 35.9375C12.5 33.3487 14.5987 31.25 17.1875 31.25H129.688C132.276 31.25 134.375 33.3487 134.375 35.9375C134.375 38.5263 132.276 40.625 129.688 40.625H17.1875C14.5987 40.625 12.5 38.5263 12.5 35.9375ZM12.5 60.9375C12.5 58.3487 14.5987 56.25 17.1875 56.25H129.688C132.276 56.25 134.375 58.3487 134.375 60.9375C134.375 63.5262 132.276 65.625 129.688 65.625H17.1875C14.5987 65.625 12.5 63.5262 12.5 60.9375ZM12.5 85.9375C12.5 83.3487 14.5987 81.25 17.1875 81.25H60.9375C63.5262 81.25 65.625 83.3487 65.625 85.9375C65.625 88.5262 63.5262 90.625 60.9375 90.625H17.1875C14.5987 90.625 12.5 88.5262 12.5 85.9375ZM12.5 110.937C12.5 108.349 14.5987 106.25 17.1875 106.25H60.9375C63.5262 106.25 65.625 108.349 65.625 110.937C65.625 113.526 63.5262 115.625 60.9375 115.625H17.1875C14.5987 115.625 12.5 113.526 12.5 110.937Z" fill="white"/>
<path d="M126.321 79.117C128.362 80.7088 128.726 83.6545 127.134 85.6957L102.759 116.946C101.889 118.061 100.562 118.724 99.1475 118.749C97.7331 118.775 96.3831 118.161 95.4731 117.078L82.3481 101.453C80.6831 99.4707 80.9406 96.5138 82.9225 94.8488C84.905 93.1832 87.8619 93.4407 89.5269 95.4226L98.9275 106.614L119.741 79.9301C121.334 77.8888 124.279 77.5245 126.321 79.117Z" fill="white"/>
</svg>
