<svg width="150" height="150" viewBox="0 0 150 150" fill="none" xmlns="http://www.w3.org/2000/svg">
<path d="M124.891 66.1414C121.774 63.3257 120.056 59.5882 120.056 55.617C120.055 51.6432 121.773 47.9026 124.889 45.086C131 39.5776 131.137 35.4394 130.176 32.9376C129.265 30.5654 126.641 27.7376 119.317 27.7376C118.807 27.7376 118.273 27.7516 117.735 27.7794C113.417 27.9988 109.425 26.4622 106.617 23.51C103.969 20.726 102.624 16.9525 102.827 12.8903C103.087 7.89002 102.17 4.25032 100.103 2.07219C98.8157 0.716564 97.1522 0 95.2919 0C92.2388 0 88.9553 1.92313 85.5325 5.71595C82.7138 8.83752 78.9738 10.5566 75 10.5566C71.0262 10.5566 67.2859 8.83752 64.4681 5.71626C61.044 1.92313 57.7609 0 54.709 0C52.8499 0 51.1868 0.716251 49.9003 2.07063C47.8321 4.24813 46.914 7.88783 47.1715 12.8847C47.3756 16.9535 46.0296 20.7272 43.3812 23.5113C40.7506 26.2772 37.0927 27.8004 33.0815 27.8004C33.0808 27.8004 33.0805 27.8004 33.0799 27.8004C32.8099 27.8004 32.5352 27.7935 32.2671 27.7801C31.7258 27.7519 31.1924 27.7379 30.6818 27.7379C23.3586 27.7379 20.7352 30.5657 19.8236 32.9382C18.8627 35.4401 18.9993 39.5785 25.1068 45.0835C28.2262 47.9026 29.944 51.6435 29.9433 55.6173C29.9427 59.5886 28.2255 63.3261 25.109 66.1404C18.998 71.653 18.8621 75.793 19.8239 78.2955C20.7355 80.6667 23.3577 83.4936 30.6721 83.4936C31.1865 83.4936 31.723 83.4792 32.2655 83.4511C35.8815 83.2652 39.2712 84.3199 41.9284 86.4055L22.5824 132.002C22.1571 133.006 22.2846 134.158 22.919 135.043C23.5536 135.929 24.6074 136.418 25.6899 136.339L43.2709 135.038L52.3106 148.607C52.8937 149.483 53.8728 150 54.9106 150C55.0165 150 55.1234 149.994 55.2306 149.983C56.3837 149.865 57.3765 149.118 57.81 148.043L74.8937 105.646L93.7432 148.142C94.2053 149.184 95.1978 149.892 96.3335 149.988C96.4225 149.996 96.5116 150 96.6003 150C97.6388 150 98.6172 149.482 99.1997 148.608L108.247 135.037L125.819 136.339C126.907 136.421 127.968 135.922 128.601 135.027C129.234 134.132 129.351 132.97 128.91 131.966L108.696 85.9377C111.037 84.308 113.873 83.4302 116.913 83.4302C117.184 83.4302 117.46 83.437 117.731 83.4508C118.276 83.4792 118.812 83.4936 119.325 83.4936C119.326 83.4936 119.327 83.4936 119.327 83.4936C126.641 83.4933 129.263 80.6661 130.175 78.2945C131.136 75.792 131.001 71.652 124.891 66.1414ZM54.2268 140.212L47.4606 130.054C46.8356 129.116 45.7484 128.587 44.629 128.67L30.3365 129.729L46.2337 92.2611C46.9518 94.1399 47.2793 96.1996 47.1718 98.3418C46.914 103.341 47.8321 106.979 49.9003 109.156C51.1871 110.511 52.85 111.227 54.7093 111.227H54.7106C57.7637 111.226 61.0462 109.302 64.4672 105.51C65.989 103.824 67.7809 102.552 69.7319 101.734L54.2268 140.212ZM121.099 129.723L106.889 128.67C105.767 128.587 104.683 129.115 104.058 130.053L97.1516 140.413L79.9344 101.597C82.0147 102.406 83.9235 103.728 85.531 105.509C88.9535 109.303 92.2372 111.227 95.2907 111.226C97.1513 111.226 98.815 110.51 100.103 109.154C102.17 106.975 103.088 103.337 102.828 98.3455C102.7 95.8058 103.178 93.3808 104.198 91.2392L121.099 129.723ZM124.34 76.0523C124.249 76.2886 123.072 77.2433 119.327 77.2433C118.921 77.2433 118.494 77.232 118.052 77.2089C117.673 77.1895 117.29 77.1798 116.913 77.1798C111.176 77.1798 105.912 79.3927 102.09 83.4111C98.2497 87.4489 96.2947 92.8643 96.586 98.6646C96.7722 102.244 96.1547 104.234 95.5697 104.851C95.4619 104.964 95.4178 104.976 95.2907 104.976C95.1041 104.976 93.3757 104.874 90.1713 101.321C86.1525 96.8705 80.7644 94.4189 74.9997 94.4189C69.235 94.4189 63.8472 96.8705 59.8272 101.322C56.624 104.874 54.8959 104.976 54.7093 104.976C54.5828 104.976 54.539 104.964 54.4315 104.851C53.8465 104.236 53.2287 102.245 53.4134 98.659C53.7043 92.8649 51.7493 87.4499 47.9084 83.4117C43.8356 79.1292 38.1396 76.8955 31.9437 77.2092C31.5062 77.2317 31.078 77.2433 30.6721 77.2433C26.9265 77.2433 25.7486 76.2889 25.658 76.0527C25.5452 75.7595 25.838 73.8992 29.2968 70.7798C33.7433 66.7642 36.1924 61.3795 36.1934 55.6176C36.1946 49.8538 33.7455 44.4657 29.2946 40.4432C25.839 37.3285 25.5455 35.4716 25.658 35.1788C25.7486 34.9423 26.928 33.9869 30.6818 33.9869C31.0852 33.9869 31.5102 33.9982 31.9483 34.0207C32.324 34.0398 32.7046 34.0494 33.0793 34.0494C33.0805 34.0494 33.0805 34.0494 33.0815 34.0494C38.8212 34.0491 44.0881 31.8363 47.9099 27.8182C51.7496 23.7813 53.7043 18.3663 53.4131 12.5666C53.2287 8.98158 53.8465 6.99033 54.4318 6.37439C54.5387 6.26189 54.5825 6.24939 54.709 6.24939C54.8956 6.24939 56.6228 6.35189 59.8281 9.90346C63.8468 14.3544 69.235 16.806 74.9997 16.806C80.7644 16.806 86.1522 14.3544 90.1716 9.90314C93.3763 6.35251 95.1047 6.25001 95.2919 6.25001C95.4191 6.25001 95.4632 6.26251 95.5707 6.37533C96.1553 6.99158 96.7725 8.98252 96.586 12.5716C96.295 18.366 98.2497 23.7804 102.089 27.8172C105.912 31.8366 111.179 34.0501 116.92 34.0501C117.294 34.0501 117.675 34.0404 118.054 34.021C118.489 33.9988 118.914 33.9873 119.318 33.9873C123.072 33.9873 124.251 34.9423 124.342 35.1788C124.454 35.4716 124.161 37.3282 120.702 40.446C116.254 44.4654 113.805 49.8538 113.806 55.6176C113.807 61.3795 116.257 66.7642 120.704 70.7811C124.161 73.8992 124.453 75.7592 124.34 76.0523Z" fill="white"/>
<path d="M75.1817 27.7029C58.6998 27.7029 45.291 41.1092 45.291 57.5883C45.291 74.0689 58.6998 87.4771 75.1817 87.4771C91.6611 87.4771 105.068 74.0692 105.068 57.5883C105.069 41.1095 91.6614 27.7029 75.1817 27.7029ZM75.1817 81.2271C62.146 81.2271 51.541 70.6227 51.541 57.5883C51.541 44.5557 62.146 33.9529 75.1817 33.9529C88.2149 33.9529 98.8183 44.5557 98.8183 57.5883C98.8186 70.6227 88.2149 81.2271 75.1817 81.2271Z" fill="white"/>
<path d="M76.3998 41.6361C75.9873 41.593 72.2504 41.2648 68.1916 42.9751C64.2876 44.6208 59.4226 48.4464 58.4176 57.328C58.2235 59.043 59.4563 60.5905 61.171 60.7846C61.2907 60.798 61.4091 60.8046 61.5266 60.8046C63.0951 60.8046 64.4473 59.6264 64.6279 58.0308C65.8451 47.2783 74.7407 47.7614 75.7679 47.8539C77.4795 48.0227 79.0048 46.7792 79.1835 45.0686C79.3629 43.3523 78.1164 41.8155 76.3998 41.6361Z" fill="white"/>
</svg>
