<svg width="51" height="51" viewBox="0 0 51 51" fill="none" xmlns="http://www.w3.org/2000/svg">
<g clip-path="url(#clip0_723_97)">
<path d="M7.41081 15.9801C10.4108 21.876 15.2441 26.6885 21.14 29.7093L25.7233 25.126C26.2858 24.5635 27.1191 24.376 27.8483 24.626C30.1816 25.3968 32.7025 25.8135 35.2858 25.8135C36.4316 25.8135 37.3691 26.751 37.3691 27.8968V35.1676C37.3691 36.3135 36.4316 37.251 35.2858 37.251C15.7233 37.251 -0.130859 21.3968 -0.130859 1.83431C-0.130859 0.688477 0.806641 -0.249023 1.95247 -0.249023H9.24414C10.39 -0.249023 11.3275 0.688477 11.3275 1.83431C11.3275 4.43848 11.7441 6.93848 12.515 9.27181C12.7441 10.001 12.5775 10.8135 11.9941 11.3968L7.41081 15.9801Z" fill="white"/>
</g>
<defs>
<clipPath id="clip0_723_97">
<rect width="50" height="50" fill="white" transform="translate(0.0664062 0.216797)"/>
</clipPath>
</defs>
</svg>
