<svg width="150" height="150" viewBox="0 0 150 150" fill="none" xmlns="http://www.w3.org/2000/svg">
<path fill-rule="evenodd" clip-rule="evenodd" d="M54.1246 28.2247C50.2196 33.6016 49.368 39.5972 50.4099 42.7769C50.9474 44.4169 50.0536 46.1822 48.4133 46.7197C46.7733 47.2572 45.008 46.3631 44.4708 44.7231C42.6299 39.105 44.3568 31.0381 49.0677 24.5519C53.9255 17.8632 62.1671 12.5 73.8636 12.5C85.7486 12.5 94.6086 17.3813 100.038 23.8539C105.353 30.1892 107.54 38.3116 105.496 44.7019C104.97 46.3459 103.211 47.2522 101.567 46.7266C99.9236 46.2006 99.0171 44.4419 99.543 42.7981C100.761 38.9878 99.5927 33.0475 95.2499 27.8707C91.0224 22.8308 83.9233 18.75 73.8636 18.75C64.2943 18.75 57.8827 23.0503 54.1246 28.2247Z" fill="white"/>
<path fill-rule="evenodd" clip-rule="evenodd" d="M59.375 18.75C61.1009 18.75 62.5 20.1491 62.5 21.875V34.375C62.5 36.1009 61.1009 37.5 59.375 37.5C57.6491 37.5 56.25 36.1009 56.25 34.375V21.875C56.25 20.1491 57.6491 18.75 59.375 18.75Z" fill="white"/>
<path fill-rule="evenodd" clip-rule="evenodd" d="M75 12.5C76.7259 12.5 78.125 13.8991 78.125 15.625V28.125C78.125 29.8509 76.7259 31.25 75 31.25C73.2741 31.25 71.875 29.8509 71.875 28.125V15.625C71.875 13.8991 73.2741 12.5 75 12.5Z" fill="white"/>
<path fill-rule="evenodd" clip-rule="evenodd" d="M56.6419 92.5881C55.9284 91.1262 54.3169 90.3362 52.7456 90.7225C35.8578 94.8725 18.75 103.335 18.75 116.065V131.25V137.5H25H125H131.25V131.25V116.065C131.25 103.335 114.142 94.8725 97.2544 90.7225C95.6831 90.3362 94.0716 91.1262 93.3581 92.5881H80.6578C77.8806 92.5887 76.4666 92.5887 75.0775 92.5887C73.6366 92.5884 72.2225 92.5884 69.3416 92.589L56.6419 92.5881ZM80.6591 98.8381C80.6584 98.8381 80.6594 98.8381 80.6591 98.8381C77.8644 98.8387 76.4562 98.8387 75.075 98.8387C73.6431 98.8384 72.2381 98.8384 69.3431 98.839L56.6413 98.8381L52.7369 98.8378L52.0175 97.3637C44.7603 99.3215 37.915 102.047 32.8631 105.389C27.1644 109.158 25 112.811 25 116.065V131.25H125V116.065C125 112.811 122.836 109.158 117.137 105.389C112.085 102.047 105.24 99.3215 97.9825 97.3637L97.2631 98.8381H93.3581H80.6591Z" fill="white"/>
<path d="M50 109.375C50 107.649 51.3991 106.25 53.125 106.25C54.8509 106.25 56.25 107.649 56.25 109.375V131.25C56.25 132.976 54.8509 134.375 53.125 134.375C51.3991 134.375 50 132.976 50 131.25V109.375Z" fill="white"/>
<path d="M93.75 109.375C93.75 107.649 95.1491 106.25 96.875 106.25C98.6009 106.25 100 107.649 100 109.375V131.25C100 132.976 98.6009 134.375 96.875 134.375C95.1491 134.375 93.75 132.976 93.75 131.25V109.375Z" fill="white"/>
<path fill-rule="evenodd" clip-rule="evenodd" d="M90.625 18.75C92.3509 18.75 93.75 20.1491 93.75 21.875V34.375C93.75 36.1009 92.3509 37.5 90.625 37.5C88.8991 37.5 87.5 36.1009 87.5 34.375V21.875C87.5 20.1491 88.8991 18.75 90.625 18.75Z" fill="white"/>
<path fill-rule="evenodd" clip-rule="evenodd" d="M39.2761 49.2631C38.7224 45.3262 41.0455 41.6252 44.7989 38.2893L48.9511 42.9606C45.673 45.8743 45.3595 47.6424 45.4652 48.3927C45.5758 49.1793 46.3642 50.4765 49.1689 51.9012C54.6517 54.6862 64.5952 56.2499 74.9999 56.2499C85.4045 56.2499 95.348 54.6862 100.831 51.9012C103.636 50.4765 104.424 49.1793 104.535 48.3927C104.64 47.6424 104.327 45.8743 101.049 42.9606L105.201 38.2893C108.954 41.6252 111.278 45.3262 110.724 49.2631C110.175 53.1643 107.009 55.7734 103.661 57.4737C96.8392 60.9387 85.6889 62.4999 74.9999 62.4999C64.3108 62.4999 53.1605 60.9387 46.3386 57.4737C42.9911 55.7734 39.8245 53.1643 39.2761 49.2631Z" fill="white"/>
<path fill-rule="evenodd" clip-rule="evenodd" d="M53.125 56.25C53.125 68.3313 62.9188 78.125 75 78.125C87.0812 78.125 96.875 68.3313 96.875 56.25H103.125C103.125 71.7831 90.5331 84.375 75 84.375C59.4669 84.375 46.875 71.7831 46.875 56.25H53.125Z" fill="white"/>
</svg>
